<mxfile host="app.diagrams.net" modified="2023-09-14T05:34:18.062Z" agent="Mozilla/5.0 (X11; Linux x86_64; rv:109.0) Gecko/20100101 Firefox/117.0" etag="d3aralD_qCTfpN_tEwfN" version="21.7.5" type="github">
  <diagram id="C5RBs43oDa-KdzZeNtuy" name="Page-1">
    <mxGraphModel dx="1050" dy="677" grid="1" gridSize="10" guides="1" tooltips="1" connect="1" arrows="1" fold="1" page="1" pageScale="1" pageWidth="827" pageHeight="1169" math="0" shadow="0">
      <root>
        <mxCell id="WIyWlLk6GJQsqaUBKTNV-0" />
        <mxCell id="WIyWlLk6GJQsqaUBKTNV-1" parent="WIyWlLk6GJQsqaUBKTNV-0" />
        <mxCell id="-UBVMIvd17ON_FVW_dmp-17" style="edgeStyle=orthogonalEdgeStyle;rounded=0;orthogonalLoop=1;jettySize=auto;html=1;entryX=0.5;entryY=0;entryDx=0;entryDy=0;" edge="1" parent="WIyWlLk6GJQsqaUBKTNV-1" source="-UBVMIvd17ON_FVW_dmp-0" target="-UBVMIvd17ON_FVW_dmp-1">
          <mxGeometry relative="1" as="geometry" />
        </mxCell>
        <mxCell id="-UBVMIvd17ON_FVW_dmp-0" value="Begin" style="strokeWidth=2;html=1;shape=mxgraph.flowchart.terminator;whiteSpace=wrap;" vertex="1" parent="WIyWlLk6GJQsqaUBKTNV-1">
          <mxGeometry x="350" y="170" width="100" height="60" as="geometry" />
        </mxCell>
        <mxCell id="-UBVMIvd17ON_FVW_dmp-3" value="" style="group" vertex="1" connectable="0" parent="WIyWlLk6GJQsqaUBKTNV-1">
          <mxGeometry x="350" y="280" width="100" height="60" as="geometry" />
        </mxCell>
        <mxCell id="-UBVMIvd17ON_FVW_dmp-1" value="" style="verticalLabelPosition=bottom;verticalAlign=top;html=1;shape=hexagon;perimeter=hexagonPerimeter2;arcSize=6;size=0.27;" vertex="1" parent="-UBVMIvd17ON_FVW_dmp-3">
          <mxGeometry width="100" height="60" as="geometry" />
        </mxCell>
        <mxCell id="-UBVMIvd17ON_FVW_dmp-2" value="i = 1" style="text;html=1;align=center;verticalAlign=middle;resizable=0;points=[];autosize=1;strokeColor=none;fillColor=none;" vertex="1" parent="-UBVMIvd17ON_FVW_dmp-3">
          <mxGeometry x="25" y="15" width="50" height="30" as="geometry" />
        </mxCell>
        <mxCell id="-UBVMIvd17ON_FVW_dmp-10" style="edgeStyle=orthogonalEdgeStyle;rounded=0;orthogonalLoop=1;jettySize=auto;html=1;entryX=0.5;entryY=0;entryDx=0;entryDy=0;" edge="1" parent="WIyWlLk6GJQsqaUBKTNV-1" source="-UBVMIvd17ON_FVW_dmp-8" target="-UBVMIvd17ON_FVW_dmp-9">
          <mxGeometry relative="1" as="geometry">
            <mxPoint x="390" y="550" as="targetPoint" />
          </mxGeometry>
        </mxCell>
        <mxCell id="-UBVMIvd17ON_FVW_dmp-15" value="Yes" style="edgeLabel;html=1;align=center;verticalAlign=middle;resizable=0;points=[];" vertex="1" connectable="0" parent="-UBVMIvd17ON_FVW_dmp-10">
          <mxGeometry x="-0.1936" y="-1" relative="1" as="geometry">
            <mxPoint as="offset" />
          </mxGeometry>
        </mxCell>
        <mxCell id="-UBVMIvd17ON_FVW_dmp-21" style="edgeStyle=orthogonalEdgeStyle;rounded=0;orthogonalLoop=1;jettySize=auto;html=1;entryX=0;entryY=0.5;entryDx=0;entryDy=0;entryPerimeter=0;" edge="1" parent="WIyWlLk6GJQsqaUBKTNV-1" source="-UBVMIvd17ON_FVW_dmp-8" target="-UBVMIvd17ON_FVW_dmp-20">
          <mxGeometry relative="1" as="geometry" />
        </mxCell>
        <mxCell id="-UBVMIvd17ON_FVW_dmp-22" value="No" style="edgeLabel;html=1;align=center;verticalAlign=middle;resizable=0;points=[];" vertex="1" connectable="0" parent="-UBVMIvd17ON_FVW_dmp-21">
          <mxGeometry x="-0.2" y="-3" relative="1" as="geometry">
            <mxPoint x="4" y="-3" as="offset" />
          </mxGeometry>
        </mxCell>
        <mxCell id="-UBVMIvd17ON_FVW_dmp-8" value="i &amp;lt;= 10" style="rhombus;whiteSpace=wrap;html=1;" vertex="1" parent="WIyWlLk6GJQsqaUBKTNV-1">
          <mxGeometry x="360" y="400" width="80" height="80" as="geometry" />
        </mxCell>
        <mxCell id="-UBVMIvd17ON_FVW_dmp-13" style="edgeStyle=orthogonalEdgeStyle;rounded=0;orthogonalLoop=1;jettySize=auto;html=1;entryX=1;entryY=0.5;entryDx=0;entryDy=0;" edge="1" parent="WIyWlLk6GJQsqaUBKTNV-1" source="-UBVMIvd17ON_FVW_dmp-9" target="-UBVMIvd17ON_FVW_dmp-12">
          <mxGeometry relative="1" as="geometry" />
        </mxCell>
        <mxCell id="-UBVMIvd17ON_FVW_dmp-9" value="cetak(i)" style="shape=parallelogram;html=1;strokeWidth=2;perimeter=parallelogramPerimeter;whiteSpace=wrap;rounded=1;arcSize=0;size=0.23;" vertex="1" parent="WIyWlLk6GJQsqaUBKTNV-1">
          <mxGeometry x="350" y="555" width="100" height="60" as="geometry" />
        </mxCell>
        <mxCell id="-UBVMIvd17ON_FVW_dmp-14" style="edgeStyle=orthogonalEdgeStyle;rounded=0;orthogonalLoop=1;jettySize=auto;html=1;entryX=0;entryY=0.5;entryDx=0;entryDy=0;" edge="1" parent="WIyWlLk6GJQsqaUBKTNV-1" source="-UBVMIvd17ON_FVW_dmp-12" target="-UBVMIvd17ON_FVW_dmp-8">
          <mxGeometry relative="1" as="geometry">
            <Array as="points">
              <mxPoint x="230" y="440" />
            </Array>
          </mxGeometry>
        </mxCell>
        <mxCell id="-UBVMIvd17ON_FVW_dmp-12" value="i = i + 1" style="rounded=0;whiteSpace=wrap;html=1;" vertex="1" parent="WIyWlLk6GJQsqaUBKTNV-1">
          <mxGeometry x="170" y="555" width="120" height="60" as="geometry" />
        </mxCell>
        <mxCell id="-UBVMIvd17ON_FVW_dmp-19" style="edgeStyle=orthogonalEdgeStyle;rounded=0;orthogonalLoop=1;jettySize=auto;html=1;entryX=0.5;entryY=0;entryDx=0;entryDy=0;" edge="1" parent="WIyWlLk6GJQsqaUBKTNV-1" source="-UBVMIvd17ON_FVW_dmp-1" target="-UBVMIvd17ON_FVW_dmp-8">
          <mxGeometry relative="1" as="geometry" />
        </mxCell>
        <mxCell id="-UBVMIvd17ON_FVW_dmp-20" value="End" style="strokeWidth=2;html=1;shape=mxgraph.flowchart.terminator;whiteSpace=wrap;" vertex="1" parent="WIyWlLk6GJQsqaUBKTNV-1">
          <mxGeometry x="530" y="410" width="100" height="60" as="geometry" />
        </mxCell>
      </root>
    </mxGraphModel>
  </diagram>
</mxfile>
